<?xml version="1.0"?><svg width="400" height="400" xmlns="http://www.w3.org/2000/svg" xmlns:xlink="http://www.w3.org/1999/xlink">
 <title>Red Warning</title>
 <defs>
  <filter id="filter3172">
   <feGaussianBlur id="feGaussianBlur3174" stdDeviation="5.092479"/>
  </filter>
  <linearGradient id="linearGradient3149">
   <stop stop-color="#f19f00" offset="0" id="stop3151"/>
   <stop stop-color="#f67805" id="stop3153" offset="1"/>
  </linearGradient>
  <linearGradient y2="0.631242" y1="0.222152" xlink:href="#linearGradient3149" x2="0.603131" x1="0.226666" id="linearGradient3148"/>
 </defs>
 <metadata id="metadata7">image/svg+xml3D effect warning triangle18/9/07Tim O'Ryan</metadata>
 <g>
  <title>Layer 1</title>
  <g id="layer1">
   <path fill="#777777" fill-opacity="0.797297" stroke-width="2" stroke-linecap="round" stroke-linejoin="round" stroke-miterlimit="4" filter="url(#filter3172)" id="path3152" d="m214.502533,47.37801c-4.18074,0.217491 -7.970459,2.54657 -10.07724,6.19326l-167.604385,291.536762c-2.221497,3.864899 -2.228519,8.631012 -0.018444,12.502563c2.210087,3.871582 6.301434,6.260254 10.732529,6.266052l334.234783,0.528687c4.432892,0.013428 8.535767,-2.359436 10.761719,-6.223877c2.225922,-3.86441 2.236298,-8.63269 0.027283,-12.506989l-166.667831,-292.06543c-2.33226,-4.070049 -6.732117,-6.477379 -11.388412,-6.23103l0,0zm0.59938,37.461712l145.23967,254.528198l-291.303482,-0.453156l146.063812,-254.075043z"/>
   <path fill="#ff7f00" stroke="#a37900" stroke-width="2" stroke-linecap="round" stroke-linejoin="round" stroke-miterlimit="4" id="path2178" d="m201.380997,41.4944c-4.181,0.217499 -7.970001,2.5466 -10.076996,6.193298l-167.6047,291.536301c-2.2215,3.86499 -2.2285,8.631012 -0.0184,12.502991c2.2101,3.872009 6.301399,6.26001 10.732498,6.266022l334.234612,0.528992c4.432983,0.013 8.53598,-2.360016 10.761993,-6.223999c2.225983,-3.86499 2.235992,-8.632996 0.027008,-12.507019l-166.668015,-292.065586c-2.332001,-4.07 -6.731995,-6.477299 -11.388,-6.230999l0,0zm0.598999,37.4617l145.240005,254.527908l-291.303402,-0.453003l146.063396,-254.074905z"/>
   <path fill="#ff7f00" stroke="url(#linearGradient3148)" stroke-width="2" stroke-linecap="round" stroke-linejoin="round" stroke-miterlimit="4" fill-rule="nonzero" d="m368.679749,346.037476l-334.254066,-0.53952l167.590553,-291.536053l166.663513,292.075573z" id="path2160"/>
   <path fill="#ffffff" stroke-width="2" stroke-linecap="round" stroke-linejoin="round" stroke-miterlimit="4" id="path19491" d="m201.44841,117.764999c-2.583633,0.136604 -4.925613,1.599403 -6.2276,3.889732l-103.576973,183.10183c-1.372849,2.427338 -1.377197,5.420746 -0.011398,7.852295c1.365791,2.43158 3.894196,3.931793 6.632545,3.935455l206.552032,0.332062c2.739471,0.008392 5.274994,-1.481873 6.650574,-3.908997c1.37558,-2.427063 1.382019,-5.421783 0.016876,-7.855072l-102.998199,-183.433846c-1.441299,-2.556236 -4.160355,-4.068169 -7.037857,-3.91346l0,0z"/>
   <path fill="#000000" stroke-width="2" id="text2171" d="m205.21051,256.440826l-5.29071,0c-0.547348,-9.455063 -2.371719,-20.776321 -5.473129,-33.963806l-6.294144,-26.872467c-3.770401,-16.110886 -5.655579,-27.649887 -5.655563,-34.616959c-0.000015,-14.058105 6.658966,-21.08725 19.97699,-21.087418c5.837967,0.000168 10.657364,1.944061 14.458206,5.831696c3.800751,3.887955 5.701157,8.848785 5.701218,14.882492c-0.000061,6.407242 -2.006882,18.070633 -6.020477,34.990189l-6.385345,26.872467c-2.250107,9.4552 -3.922455,20.776443 -5.017044,33.963806l0,0zm-2.462906,17.63504c6.20285,0.000061 11.007034,2.130554 14.412613,6.391541c3.405457,4.261078 5.108215,8.817566 5.108261,13.669525c-0.000046,6.407104 -2.067673,11.336823 -6.202896,14.789185c-4.1353,3.452362 -8.574631,5.178528 -13.317978,5.178528c-6.263748,0 -11.083145,-2.11496 -14.458237,-6.344879c-3.375122,-4.229919 -5.062668,-8.770874 -5.062637,-13.622833c-0.000031,-5.660614 1.869965,-10.419281 5.609955,-14.276001c3.73996,-3.856659 8.376923,-5.785004 13.910919,-5.785065l0,0z"/>
  </g>
 </g>
</svg>